<?xml version="1.0" encoding="utf-8"?>
<!-- Generator: Adobe Illustrator 22.1.0, SVG Export Plug-In . SVG Version: 6.00 Build 0)  -->
<svg version="1.1" id="Layer_1" xmlns="http://www.w3.org/2000/svg" xmlns:xlink="http://www.w3.org/1999/xlink" x="0px" y="0px"
	 viewBox="0 0 150 200" style="enable-background:new 0 0 150 200;" xml:space="preserve">
<style type="text/css">
	.st0{fill:#F37021;}
	.st1{fill:#EE3124;}
	.st2{fill:#F04E23;}
	.st3{fill:#9E280E;}
	.st4{fill:#A70E13;}
	.st5{fill:#006E9F;}
</style>
<g>
	<polygon id="XMLID_399_" class="st0" points="140,13.3 10.1,13.3 10,13.3 10,54.8 10.1,143.3 41.2,143.3 41.2,44.5 140,44.5 	"/>
	<rect id="XMLID_398_" x="108.8" y="112.1" class="st1" width="31.2" height="31.2"/>
	<polygon id="XMLID_397_" class="st2" points="88,44.5 88,91.3 41.2,91.3 41.2,122.5 119.2,122.5 119.2,44.5 	"/>
	<rect id="XMLID_396_" x="41.2" y="91.3" class="st3" width="5.2" height="31.2"/>
	<rect id="XMLID_395_" x="88" y="44.5" class="st3" width="31.2" height="5.2"/>
	<rect id="XMLID_394_" x="108.8" y="122.5" class="st4" width="15.6" height="5.2"/>
	<rect id="XMLID_393_" x="119.2" y="112.1" class="st4" width="5.2" height="15.6"/>
</g>
<path class="st5" d="M137.1,154.6v28.3c0,0.5-0.4,0.9-0.9,0.9h-2.5c-0.5,0-0.9-0.4-0.9-0.9v-28.3h-2.9v30.8c0,0.7,0.6,1.3,1.3,1.3
	h7.4c0.7,0,1.3-0.6,1.3-1.3v-30.8H137.1z"/>
<path class="st5" d="M122.8,172l2.3,14.5h3l-2.3-14.5h0.5c0.7,0,1.3-0.6,1.3-1.3v-3.6v-7v-3.8c0-0.7-0.6-1.3-1.3-1.3h-8.6v5.1V172
	v14.5h2.9v-2.4h0V172H122.8z M120.5,160.1v-2.2h3.3c0.5,0,0.9,0.4,0.9,0.9v1.3v7v1.1c0,0.5-0.4,0.9-0.9,0.9h-3.3V160.1z"/>
<path class="st5" d="M45.8,186.4v-9.5c0-2.3,0-4.6,0-6.8c0-2.2,0-4.5,0.1-6.8l-3.4,23H40l-3.3-23c0,2.3,0,4.6,0.1,6.8
	c0,2.2,0,4.5,0,6.8v9.5h-2.7v-31.3h3.9l3.3,24.5l3.3-24.5h4v31.3H45.8z"/>
<path class="st5" d="M51.3,186.4v-31.3h8.3v2.9h-5.4v11H58v2.9h-3.8v11.6h5.6v2.9H51.3z"/>
<path class="st5" d="M69.6,186.4V158h-3.5v-2.9H76v2.9h-3.5v28.4H69.6z"/>
<path class="st5" d="M107,186.4v-31.3h8.3v2.9h-5.4v11h3.8v2.9h-3.8v11.6h5.6v2.9H107z"/>
<path class="st5" d="M133.1,152.8l3.8-5.5h3l-4.6,5.5H133.1z"/>
<path class="st5" d="M85.8,155.1h-7.4c-0.7,0-1.3,0.6-1.3,1.3v28.8c0,0.7,0.6,1.3,1.3,1.3h7.4c0.7,0,1.3-0.6,1.3-1.3v-28.8
	C87.1,155.7,86.5,155.1,85.8,155.1z M84.2,182.7c0,0.5-0.4,0.9-0.9,0.9h-2.5c-0.5,0-0.9-0.4-0.9-0.9v-23.8c0-0.5,0.4-0.9,0.9-0.9
	h2.5c0.5,0,0.9,0.4,0.9,0.9V182.7z"/>
<path class="st5" d="M17,174.9v8c0,0.5-0.4,0.9-0.9,0.9h-2.5c-0.5,0-0.9-0.4-0.9-0.9v-24.4c0-0.5,0.4-0.9,0.9-0.9h2.5
	c0.5,0,0.9,0.4,0.9,0.9v7.1h2.9V156c0-0.7-0.6-1.3-1.3-1.3h-7.4c-0.7,0-1.3,0.6-1.3,1.3v29.4c0,0.7,0.6,1.3,1.3,1.3h7.4
	c0.7,0,1.3-0.6,1.3-1.3v-10.5H17z"/>
<path class="st5" d="M103.5,155h-8.6v5.1V172v14.5h2.9v-2.4h0V172h5.8c0.7,0,1.3-0.6,1.3-1.3v-3.6v-7v-3.8
	C104.7,155.6,104.2,155,103.5,155z M101.9,167.1v1.1c0,0.5-0.4,0.9-0.9,0.9h-3.3v-9v-2.2h3.3c0.5,0,0.9,0.4,0.9,0.9v1.3V167.1z"/>
<path class="st5" d="M30.3,155.1H23c-0.7,0-1.3,0.6-1.3,1.3v28.8c0,0.7,0.6,1.3,1.3,1.3h7.4c0.7,0,1.3-0.6,1.3-1.3v-28.8
	C31.6,155.7,31,155.1,30.3,155.1z M28.7,182.7c0,0.5-0.4,0.9-0.9,0.9h-2.5c-0.5,0-0.9-0.4-0.9-0.9v-23.8c0-0.5,0.4-0.9,0.9-0.9h2.5
	c0.5,0,0.9,0.4,0.9,0.9V182.7z"/>
</svg>
